<svg width="1048" height="1048" viewBox="0 0 1048 1048" fill="none" xmlns="http://www.w3.org/2000/svg">
<g clip-path="url(#clip0_236_20101)">
<mask id="mask0_236_20101" style="mask-type:luminance" maskUnits="userSpaceOnUse" x="12" y="12" width="1024" height="1024">
<path d="M1036 12H12V1036H1036V12Z" fill="white"/>
</mask>
<g mask="url(#mask0_236_20101)">
<path d="M1036 12H12V1036H1036V12Z" fill="#059759"/>
<path d="M962 179H862V209H962V179Z" fill="url(#paint0_linear_236_20101)"/>
<path d="M962 229H862V259H962V229Z" fill="url(#paint1_linear_236_20101)"/>
<path d="M962 279H862V309H962V279Z" fill="url(#paint2_linear_236_20101)"/>
<path d="M962 329H862V359H962V329Z" fill="url(#paint3_linear_236_20101)"/>
<path d="M962 379H862V409H962V379Z" fill="url(#paint4_linear_236_20101)"/>
<path d="M962 429H862V459H962V429Z" fill="url(#paint5_linear_236_20101)"/>
<path d="M962 479H862V509H962V479Z" fill="url(#paint6_linear_236_20101)"/>
<path d="M962 529H862V559H962V529Z" fill="url(#paint7_linear_236_20101)"/>
<path d="M962 579H862V609H962V579Z" fill="url(#paint8_linear_236_20101)"/>
<path d="M962 629H862V659H962V629Z" fill="url(#paint9_linear_236_20101)"/>
<path d="M962 679H862V709H962V679Z" fill="url(#paint10_linear_236_20101)"/>
<path d="M962 729H862V759H962V729Z" fill="url(#paint11_linear_236_20101)"/>
<path d="M962 779H862V809H962V779Z" fill="url(#paint12_linear_236_20101)"/>
<path d="M962 829H862V859H962V829Z" fill="url(#paint13_linear_236_20101)"/>
<path d="M185 179H85V209H185V179Z" fill="url(#paint14_linear_236_20101)"/>
<path d="M185 229H85V259H185V229Z" fill="url(#paint15_linear_236_20101)"/>
<path d="M185 279H85V309H185V279Z" fill="url(#paint16_linear_236_20101)"/>
<path d="M185 329H85V359H185V329Z" fill="url(#paint17_linear_236_20101)"/>
<path d="M185 379H85V409H185V379Z" fill="url(#paint18_linear_236_20101)"/>
<path d="M185 429H85V459H185V429Z" fill="url(#paint19_linear_236_20101)"/>
<path d="M185 479H85V509H185V479Z" fill="url(#paint20_linear_236_20101)"/>
<path d="M185 529H85V559H185V529Z" fill="url(#paint21_linear_236_20101)"/>
<path d="M185 579H85V609H185V579Z" fill="url(#paint22_linear_236_20101)"/>
<path d="M185 629H85V659H185V629Z" fill="url(#paint23_linear_236_20101)"/>
<path d="M185 679H85V709H185V679Z" fill="url(#paint24_linear_236_20101)"/>
<path d="M185 729H85V759H185V729Z" fill="url(#paint25_linear_236_20101)"/>
<path d="M185 779H85V809H185V779Z" fill="url(#paint26_linear_236_20101)"/>
<path d="M185 829H85V859H185V829Z" fill="url(#paint27_linear_236_20101)"/>
<path d="M864 85V185H834V85H864Z" fill="url(#paint28_linear_236_20101)"/>
<path d="M814 85V185H784V85H814Z" fill="url(#paint29_linear_236_20101)"/>
<path d="M764 85V185H734V85H764Z" fill="url(#paint30_linear_236_20101)"/>
<path d="M714 85V185H684V85H714Z" fill="url(#paint31_linear_236_20101)"/>
<path d="M664 85V185H634V85H664Z" fill="url(#paint32_linear_236_20101)"/>
<path d="M614 85V185H584V85H614Z" fill="url(#paint33_linear_236_20101)"/>
<path d="M564 85V185H534V85H564Z" fill="url(#paint34_linear_236_20101)"/>
<path d="M514 85V185H484V85H514Z" fill="url(#paint35_linear_236_20101)"/>
<path d="M464 85V185H434V85H464Z" fill="url(#paint36_linear_236_20101)"/>
<path d="M414 85V185H384V85H414Z" fill="url(#paint37_linear_236_20101)"/>
<path d="M364 85V185H334V85H364Z" fill="url(#paint38_linear_236_20101)"/>
<path d="M314 85V185H284V85H314Z" fill="url(#paint39_linear_236_20101)"/>
<path d="M264 85V185H234V85H264Z" fill="url(#paint40_linear_236_20101)"/>
<path d="M214 85V185H184V85H214Z" fill="url(#paint41_linear_236_20101)"/>
<path d="M864 862V962H834V862H864Z" fill="url(#paint42_linear_236_20101)"/>
<path d="M814 862V962H784V862H814Z" fill="url(#paint43_linear_236_20101)"/>
<path d="M764 862V962H734V862H764Z" fill="url(#paint44_linear_236_20101)"/>
<path d="M714 862V962H684V862H714Z" fill="url(#paint45_linear_236_20101)"/>
<path d="M664 862V962H634V862H664Z" fill="url(#paint46_linear_236_20101)"/>
<path d="M614 862V962H584V862H614Z" fill="url(#paint47_linear_236_20101)"/>
<path d="M564 862V962H534V862H564Z" fill="url(#paint48_linear_236_20101)"/>
<path d="M514 862V962H484V862H514Z" fill="url(#paint49_linear_236_20101)"/>
<path d="M464 862V962H434V862H464Z" fill="url(#paint50_linear_236_20101)"/>
<path d="M414 862V962H384V862H414Z" fill="url(#paint51_linear_236_20101)"/>
<path d="M364 862V962H334V862H364Z" fill="url(#paint52_linear_236_20101)"/>
<path d="M314 862V962H284V862H314Z" fill="url(#paint53_linear_236_20101)"/>
<path d="M264 862V962H234V862H264Z" fill="url(#paint54_linear_236_20101)"/>
<path d="M214 862V962H184V862H214Z" fill="url(#paint55_linear_236_20101)"/>
<g filter="url(#filter0_n_236_20101)">
<path d="M902 146H146V902H902V146Z" fill="#090909"/>
</g>
<path d="M326.667 586.333C317.556 586.333 309.222 584 301.667 579.333C294.111 574.556 288.056 568.222 283.5 560.333C279.056 552.333 276.833 543.556 276.833 534C276.833 524.444 279.056 515.722 283.5 507.833C288.056 499.833 294.111 493.5 301.667 488.833C309.222 484.056 317.556 481.667 326.667 481.667C333.222 481.667 339.278 482.833 344.833 485.167C350.389 487.5 355.111 490.778 359 495V484H381.833V584H359V573C355.111 577.111 350.389 580.389 344.833 582.833C339.278 585.167 333.222 586.333 326.667 586.333ZM329.833 563.167C335.167 563.167 339.944 561.833 344.167 559.167C348.5 556.5 351.944 553 354.5 548.667C357.056 544.222 358.333 539.333 358.333 534C358.333 528.667 357.056 523.833 354.5 519.5C351.944 515.056 348.5 511.5 344.167 508.833C339.944 506.167 335.222 504.833 330 504.833C324.667 504.833 319.833 506.167 315.5 508.833C311.278 511.5 307.889 515.056 305.333 519.5C302.778 523.833 301.5 528.667 301.5 534C301.5 539.333 302.778 544.222 305.333 548.667C307.889 553 311.278 556.5 315.5 559.167C319.833 561.833 324.611 563.167 329.833 563.167ZM406.552 584V484H430.052V501.5C433.608 495.722 438.052 491.222 443.385 488C448.83 484.667 455.274 483 462.719 483L468.552 506.667C466.441 506 464.052 505.667 461.385 505.667C452.719 505.667 445.774 508.444 440.552 514C435.33 519.556 432.719 527.444 432.719 537.667V584H406.552ZM482.724 584V484H506.224V495.833C509.891 490.944 514.391 487.278 519.724 484.833C525.057 482.278 530.668 481 536.557 481C542.668 481 548.391 482.333 553.724 485C559.057 487.556 563.502 491.333 567.057 496.333C570.946 491.333 575.835 487.556 581.724 485C587.613 482.333 593.946 481 600.724 481C607.946 481 614.668 482.667 620.891 486C627.113 489.333 632.168 494.167 636.057 500.5C639.946 506.833 641.891 514.444 641.891 523.333V584H615.557V527C615.557 520.667 613.724 515.389 610.057 511.167C606.502 506.944 601.668 504.833 595.557 504.833C592.113 504.833 588.835 505.611 585.724 507.167C582.613 508.722 580.113 511.111 578.224 514.333C576.335 517.556 575.391 521.667 575.391 526.667V584H549.057V527C549.057 522.778 548.224 519 546.557 515.667C544.891 512.222 542.557 509.556 539.557 507.667C536.557 505.667 533.057 504.667 529.057 504.667C525.724 504.667 522.502 505.5 519.391 507.167C516.28 508.722 513.724 511.111 511.724 514.333C509.835 517.556 508.891 521.667 508.891 526.667V584H482.724ZM708.865 586.333C699.642 586.333 691.253 584 683.698 579.333C676.142 574.556 670.087 568.222 665.531 560.333C661.087 552.333 658.865 543.556 658.865 534C658.865 524.444 661.087 515.722 665.531 507.833C670.087 499.833 676.142 493.5 683.698 488.833C691.253 484.056 699.642 481.667 708.865 481.667C714.531 481.667 719.753 482.556 724.531 484.333C729.42 486.111 733.809 488.556 737.698 491.667V424H763.865V584H741.031V573.333C737.142 577.333 732.42 580.5 726.865 582.833C721.309 585.167 715.309 586.333 708.865 586.333ZM711.865 563.167C717.198 563.167 721.976 561.833 726.198 559.167C730.531 556.5 733.976 553 736.531 548.667C739.087 544.222 740.365 539.333 740.365 534C740.365 528.667 739.087 523.833 736.531 519.5C733.976 515.056 730.531 511.5 726.198 508.833C721.976 506.167 717.253 504.833 712.031 504.833C706.698 504.833 701.865 506.167 697.531 508.833C693.309 511.5 689.92 515.056 687.365 519.5C684.809 523.833 683.531 528.667 683.531 534C683.531 539.333 684.809 544.222 687.365 548.667C689.92 553 693.309 556.5 697.531 559.167C701.865 561.833 706.642 563.167 711.865 563.167Z" fill="white"/>
<path d="M167.028 855V846.667H168.986V847.653C169.292 847.245 169.667 846.94 170.111 846.736C170.556 846.523 171.023 846.417 171.514 846.417C172.023 846.417 172.5 846.528 172.944 846.75C173.389 846.963 173.759 847.278 174.056 847.694C174.38 847.278 174.787 846.963 175.278 846.75C175.769 846.528 176.296 846.417 176.861 846.417C177.463 846.417 178.023 846.556 178.542 846.833C179.06 847.111 179.481 847.514 179.806 848.042C180.13 848.569 180.292 849.204 180.292 849.944V855H178.097V850.25C178.097 849.722 177.944 849.282 177.639 848.931C177.343 848.579 176.94 848.403 176.431 848.403C176.144 848.403 175.87 848.468 175.611 848.597C175.352 848.727 175.144 848.926 174.986 849.194C174.829 849.463 174.75 849.806 174.75 850.222V855H172.556V850.25C172.556 849.898 172.486 849.583 172.347 849.306C172.208 849.019 172.014 848.796 171.764 848.639C171.514 848.472 171.222 848.389 170.889 848.389C170.611 848.389 170.343 848.458 170.083 848.597C169.824 848.727 169.611 848.926 169.444 849.194C169.287 849.463 169.208 849.806 169.208 850.222V855H167.028ZM186.178 855.25C185.354 855.25 184.6 855.051 183.914 854.653C183.239 854.255 182.702 853.722 182.303 853.056C181.905 852.389 181.706 851.648 181.706 850.833C181.706 850.019 181.905 849.278 182.303 848.611C182.702 847.944 183.239 847.412 183.914 847.014C184.6 846.616 185.35 846.417 186.164 846.417C186.998 846.417 187.752 846.616 188.428 847.014C189.104 847.412 189.641 847.944 190.039 848.611C190.447 849.269 190.651 850.009 190.651 850.833C190.651 851.639 190.447 852.38 190.039 853.056C189.641 853.722 189.104 854.255 188.428 854.653C187.752 855.051 187.002 855.25 186.178 855.25ZM186.164 853.278C186.618 853.278 187.026 853.167 187.387 852.944C187.748 852.722 188.035 852.426 188.248 852.056C188.461 851.685 188.567 851.278 188.567 850.833C188.567 850.38 188.461 849.972 188.248 849.611C188.035 849.241 187.748 848.944 187.387 848.722C187.026 848.5 186.618 848.389 186.164 848.389C185.72 848.389 185.317 848.5 184.956 848.722C184.595 848.944 184.308 849.241 184.095 849.611C183.882 849.972 183.776 850.38 183.776 850.833C183.776 851.278 183.882 851.685 184.095 852.056C184.308 852.426 184.595 852.722 184.956 852.944C185.317 853.167 185.72 853.278 186.164 853.278ZM195.525 855.417L191.053 846.667H193.483L194.886 849.583C195.015 849.833 195.136 850.083 195.247 850.333C195.358 850.583 195.469 850.875 195.58 851.208C195.691 850.875 195.803 850.583 195.914 850.333C196.025 850.083 196.145 849.833 196.275 849.583L197.678 846.667H199.997L195.525 855.417ZM205.303 855V841.667H207.484V855H205.303ZM213.561 855.25C212.737 855.25 211.982 855.051 211.297 854.653C210.621 854.255 210.084 853.722 209.686 853.056C209.288 852.389 209.089 851.648 209.089 850.833C209.089 850.019 209.288 849.278 209.686 848.611C210.084 847.944 210.621 847.412 211.297 847.014C211.982 846.616 212.732 846.417 213.547 846.417C214.381 846.417 215.135 846.616 215.811 847.014C216.487 847.412 217.024 847.944 217.422 848.611C217.83 849.269 218.033 850.009 218.033 850.833C218.033 851.639 217.83 852.38 217.422 853.056C217.024 853.722 216.487 854.255 215.811 854.653C215.135 855.051 214.385 855.25 213.561 855.25ZM213.547 853.278C214.001 853.278 214.408 853.167 214.77 852.944C215.131 852.722 215.418 852.426 215.631 852.056C215.844 851.685 215.95 851.278 215.95 850.833C215.95 850.38 215.844 849.972 215.631 849.611C215.418 849.241 215.131 848.944 214.77 848.722C214.408 848.5 214.001 848.389 213.547 848.389C213.103 848.389 212.7 848.5 212.339 848.722C211.978 848.944 211.691 849.241 211.478 849.611C211.265 849.972 211.158 850.38 211.158 850.833C211.158 851.278 211.265 851.685 211.478 852.056C211.691 852.426 211.978 852.722 212.339 852.944C212.7 853.167 213.103 853.278 213.547 853.278ZM222.908 855.417L218.435 846.667H220.866L222.269 849.583C222.398 849.833 222.519 850.083 222.63 850.333C222.741 850.583 222.852 850.875 222.963 851.208C223.074 850.875 223.185 850.583 223.296 850.333C223.408 850.083 223.528 849.833 223.658 849.583L225.06 846.667H227.38L222.908 855.417ZM232.324 855.25C231.408 855.25 230.593 855.056 229.88 854.667C229.176 854.278 228.625 853.745 228.227 853.069C227.838 852.384 227.644 851.611 227.644 850.75C227.644 849.926 227.833 849.19 228.213 848.542C228.602 847.884 229.125 847.366 229.783 846.986C230.44 846.606 231.167 846.417 231.963 846.417C232.778 846.417 233.505 846.606 234.144 846.986C234.792 847.356 235.306 847.861 235.685 848.5C236.065 849.139 236.255 849.866 236.255 850.681V851.472H231.074C230.843 851.472 230.616 851.458 230.394 851.431C230.171 851.403 229.949 851.37 229.727 851.333C229.838 851.935 230.13 852.431 230.602 852.819C231.074 853.208 231.667 853.403 232.38 853.403C232.908 853.403 233.384 853.292 233.81 853.069C234.236 852.847 234.588 852.569 234.866 852.236L235.366 854.278C234.949 854.602 234.482 854.843 233.963 855C233.445 855.167 232.898 855.25 232.324 855.25ZM229.671 849.986C230.144 849.894 230.611 849.847 231.074 849.847H232.866C233.116 849.847 233.352 849.856 233.574 849.875C233.796 849.894 234.009 849.921 234.213 849.958C234.074 849.421 233.801 848.991 233.394 848.667C232.996 848.343 232.514 848.181 231.949 848.181C231.394 848.181 230.912 848.347 230.505 848.681C230.097 849.014 229.82 849.449 229.671 849.986ZM236.612 857.083C237.01 856.528 237.338 855.88 237.598 855.139C237.857 854.407 237.987 853.565 237.987 852.611H240.112C240.112 853.454 240.005 854.25 239.792 855C239.579 855.759 239.264 856.454 238.848 857.083H236.612ZM246.028 855L246.528 852H245.112L245.389 850.333H246.806L247.334 847.167H245.862L246.139 845.5H247.612L248.112 842.5H249.931L249.431 845.5H251.737L252.237 842.5H254.056L253.556 845.5H255L254.723 847.167H253.278L252.75 850.333H254.25L253.973 852H252.473L251.973 855H250.153L250.653 852H248.348L247.848 855H246.028ZM248.514 850.431H251.014L251.57 847.069H249.07L248.514 850.431ZM260.466 855.25C259.679 855.25 258.999 855.065 258.424 854.694C257.86 854.315 257.387 853.81 257.008 853.181C256.637 852.551 256.36 851.852 256.174 851.083C255.999 850.315 255.911 849.537 255.911 848.75C255.911 847.963 255.999 847.185 256.174 846.417C256.36 845.648 256.637 844.949 257.008 844.319C257.387 843.69 257.86 843.19 258.424 842.819C258.999 842.44 259.679 842.25 260.466 842.25C261.253 842.25 261.929 842.44 262.494 842.819C263.068 843.19 263.54 843.69 263.911 844.319C264.29 844.949 264.568 845.648 264.744 846.417C264.929 847.185 265.022 847.963 265.022 848.75C265.022 849.537 264.929 850.315 264.744 851.083C264.568 851.852 264.29 852.551 263.911 853.181C263.54 853.81 263.068 854.315 262.494 854.694C261.929 855.065 261.253 855.25 260.466 855.25ZM260.466 853.208C260.883 853.208 261.235 853.074 261.522 852.806C261.818 852.537 262.054 852.185 262.23 851.75C262.415 851.306 262.549 850.824 262.633 850.306C262.716 849.778 262.758 849.259 262.758 848.75C262.758 848.231 262.716 847.713 262.633 847.194C262.549 846.676 262.415 846.199 262.23 845.764C262.054 845.319 261.818 844.963 261.522 844.694C261.235 844.426 260.883 844.292 260.466 844.292C260.049 844.292 259.693 844.426 259.397 844.694C259.11 844.963 258.874 845.319 258.688 845.764C258.512 846.199 258.383 846.676 258.299 847.194C258.216 847.713 258.174 848.231 258.174 848.75C258.174 849.259 258.216 849.778 258.299 850.306C258.383 850.824 258.512 851.306 258.688 851.75C258.874 852.185 259.11 852.537 259.397 852.806C259.693 853.074 260.049 853.208 260.466 853.208ZM167.028 882V873.667H168.986V874.653C169.292 874.245 169.667 873.94 170.111 873.736C170.556 873.523 171.023 873.417 171.514 873.417C172.023 873.417 172.5 873.528 172.944 873.75C173.389 873.963 173.759 874.278 174.056 874.694C174.38 874.278 174.787 873.963 175.278 873.75C175.769 873.528 176.296 873.417 176.861 873.417C177.463 873.417 178.023 873.556 178.542 873.833C179.06 874.111 179.481 874.514 179.806 875.042C180.13 875.569 180.292 876.204 180.292 876.944V882H178.097V877.25C178.097 876.722 177.944 876.282 177.639 875.931C177.343 875.579 176.94 875.403 176.431 875.403C176.144 875.403 175.87 875.468 175.611 875.597C175.352 875.727 175.144 875.926 174.986 876.194C174.829 876.463 174.75 876.806 174.75 877.222V882H172.556V877.25C172.556 876.898 172.486 876.583 172.347 876.306C172.208 876.019 172.014 875.796 171.764 875.639C171.514 875.472 171.222 875.389 170.889 875.389C170.611 875.389 170.343 875.458 170.083 875.597C169.824 875.727 169.611 875.926 169.444 876.194C169.287 876.463 169.208 876.806 169.208 877.222V882H167.028ZM186.178 882.25C185.354 882.25 184.6 882.051 183.914 881.653C183.239 881.255 182.702 880.722 182.303 880.056C181.905 879.389 181.706 878.648 181.706 877.833C181.706 877.019 181.905 876.278 182.303 875.611C182.702 874.944 183.239 874.412 183.914 874.014C184.6 873.616 185.35 873.417 186.164 873.417C186.998 873.417 187.752 873.616 188.428 874.014C189.104 874.412 189.641 874.944 190.039 875.611C190.447 876.269 190.651 877.009 190.651 877.833C190.651 878.639 190.447 879.38 190.039 880.056C189.641 880.722 189.104 881.255 188.428 881.653C187.752 882.051 187.002 882.25 186.178 882.25ZM186.164 880.278C186.618 880.278 187.026 880.167 187.387 879.944C187.748 879.722 188.035 879.426 188.248 879.056C188.461 878.685 188.567 878.278 188.567 877.833C188.567 877.38 188.461 876.972 188.248 876.611C188.035 876.241 187.748 875.944 187.387 875.722C187.026 875.5 186.618 875.389 186.164 875.389C185.72 875.389 185.317 875.5 184.956 875.722C184.595 875.944 184.308 876.241 184.095 876.611C183.882 876.972 183.776 877.38 183.776 877.833C183.776 878.278 183.882 878.685 184.095 879.056C184.308 879.426 184.595 879.722 184.956 879.944C185.317 880.167 185.72 880.278 186.164 880.278ZM195.525 882.417L191.053 873.667H193.483L194.886 876.583C195.015 876.833 195.136 877.083 195.247 877.333C195.358 877.583 195.469 877.875 195.58 878.208C195.691 877.875 195.803 877.583 195.914 877.333C196.025 877.083 196.145 876.833 196.275 876.583L197.678 873.667H199.997L195.525 882.417ZM205.303 882V868.667H207.484V882H205.303ZM209.561 882V873.667H211.742V882H209.561ZM210.658 872.389C210.316 872.389 210.024 872.273 209.783 872.042C209.552 871.801 209.436 871.509 209.436 871.167C209.436 870.815 209.552 870.523 209.783 870.292C210.024 870.06 210.316 869.944 210.658 869.944C211.01 869.944 211.302 870.06 211.533 870.292C211.765 870.523 211.881 870.815 211.881 871.167C211.881 871.509 211.765 871.801 211.533 872.042C211.302 872.273 211.01 872.389 210.658 872.389ZM214.777 882V875.417H213.138V873.667H214.819V871.472C214.819 870.5 215.101 869.764 215.666 869.264C216.231 868.755 216.925 868.5 217.75 868.5C218.055 868.5 218.351 868.537 218.638 868.611C218.935 868.676 219.199 868.782 219.43 868.931L218.986 870.764C218.68 870.403 218.324 870.222 217.916 870.222C217.675 870.222 217.449 870.31 217.236 870.486C217.023 870.653 216.916 870.972 216.916 871.444V873.667H218.666V875.417H216.958V882H214.777ZM223.867 882.25C222.951 882.25 222.136 882.056 221.423 881.667C220.719 881.278 220.168 880.745 219.77 880.069C219.381 879.384 219.187 878.611 219.187 877.75C219.187 876.926 219.376 876.19 219.756 875.542C220.145 874.884 220.668 874.366 221.326 873.986C221.983 873.606 222.71 873.417 223.506 873.417C224.321 873.417 225.048 873.606 225.687 873.986C226.335 874.356 226.849 874.861 227.228 875.5C227.608 876.139 227.798 876.866 227.798 877.681V878.472H222.617C222.386 878.472 222.159 878.458 221.937 878.431C221.714 878.403 221.492 878.37 221.27 878.333C221.381 878.935 221.673 879.431 222.145 879.819C222.617 880.208 223.21 880.403 223.923 880.403C224.451 880.403 224.927 880.292 225.353 880.069C225.779 879.847 226.131 879.569 226.409 879.236L226.909 881.278C226.492 881.602 226.025 881.843 225.506 882C224.988 882.167 224.441 882.25 223.867 882.25ZM221.214 876.986C221.687 876.894 222.154 876.847 222.617 876.847H224.409C224.659 876.847 224.895 876.856 225.117 876.875C225.339 876.894 225.552 876.921 225.756 876.958C225.617 876.421 225.344 875.991 224.937 875.667C224.538 875.343 224.057 875.181 223.492 875.181C222.937 875.181 222.455 875.347 222.048 875.681C221.64 876.014 221.363 876.449 221.214 876.986ZM228.155 884.083C228.553 883.528 228.881 882.88 229.141 882.139C229.4 881.407 229.53 880.565 229.53 879.611H231.655C231.655 880.454 231.548 881.25 231.335 882C231.122 882.759 230.807 883.454 230.391 884.083H228.155ZM237.432 882V868.667H239.613V882H237.432ZM245.69 882.25C244.866 882.25 244.111 882.051 243.426 881.653C242.75 881.255 242.213 880.722 241.815 880.056C241.417 879.389 241.218 878.648 241.218 877.833C241.218 877.019 241.417 876.278 241.815 875.611C242.213 874.944 242.75 874.412 243.426 874.014C244.111 873.616 244.861 873.417 245.676 873.417C246.51 873.417 247.264 873.616 247.94 874.014C248.616 874.412 249.153 874.944 249.551 875.611C249.959 876.269 250.162 877.009 250.162 877.833C250.162 878.639 249.959 879.38 249.551 880.056C249.153 880.722 248.616 881.255 247.94 881.653C247.264 882.051 246.514 882.25 245.69 882.25ZM245.676 880.278C246.13 880.278 246.537 880.167 246.898 879.944C247.26 879.722 247.547 879.426 247.76 879.056C247.973 878.685 248.079 878.278 248.079 877.833C248.079 877.38 247.973 876.972 247.76 876.611C247.547 876.241 247.26 875.944 246.898 875.722C246.537 875.5 246.13 875.389 245.676 875.389C245.232 875.389 244.829 875.5 244.468 875.722C244.107 875.944 243.82 876.241 243.607 876.611C243.394 876.972 243.287 877.38 243.287 877.833C243.287 878.278 243.394 878.685 243.607 879.056C243.82 879.426 244.107 879.722 244.468 879.944C244.829 880.167 245.232 880.278 245.676 880.278ZM255.036 882.417L250.564 873.667H252.995L254.398 876.583C254.527 876.833 254.648 877.083 254.759 877.333C254.87 877.583 254.981 877.875 255.092 878.208C255.203 877.875 255.314 877.583 255.425 877.333C255.536 877.083 255.657 876.833 255.786 876.583L257.189 873.667H259.509L255.036 882.417ZM264.453 882.25C263.536 882.25 262.722 882.056 262.009 881.667C261.305 881.278 260.754 880.745 260.356 880.069C259.967 879.384 259.773 878.611 259.773 877.75C259.773 876.926 259.962 876.19 260.342 875.542C260.731 874.884 261.254 874.366 261.911 873.986C262.569 873.606 263.296 873.417 264.092 873.417C264.907 873.417 265.634 873.606 266.273 873.986C266.921 874.356 267.435 874.861 267.814 875.5C268.194 876.139 268.384 876.866 268.384 877.681V878.472H263.203C262.972 878.472 262.745 878.458 262.523 878.431C262.3 878.403 262.078 878.37 261.856 878.333C261.967 878.935 262.259 879.431 262.731 879.819C263.203 880.208 263.796 880.403 264.509 880.403C265.036 880.403 265.513 880.292 265.939 880.069C266.365 879.847 266.717 879.569 266.995 879.236L267.495 881.278C267.078 881.602 266.611 881.843 266.092 882C265.573 882.167 265.027 882.25 264.453 882.25ZM261.8 876.986C262.273 876.894 262.74 876.847 263.203 876.847H264.995C265.245 876.847 265.481 876.856 265.703 876.875C265.925 876.894 266.138 876.921 266.342 876.958C266.203 876.421 265.93 875.991 265.523 875.667C265.124 875.343 264.643 875.181 264.078 875.181C263.523 875.181 263.041 875.347 262.634 875.681C262.226 876.014 261.948 876.449 261.8 876.986Z" fill="white"/>
</g>
</g>
<rect x="12" y="12" width="1024" height="1024" rx="225" stroke="#056F31" stroke-width="24"/>
<defs>
<filter id="filter0_n_236_20101" x="146" y="146" width="756" height="756" filterUnits="userSpaceOnUse" color-interpolation-filters="sRGB">
<feFlood flood-opacity="0" result="BackgroundImageFix"/>
<feBlend mode="normal" in="SourceGraphic" in2="BackgroundImageFix" result="shape"/>
<feTurbulence type="fractalNoise" baseFrequency="0.21276596188545227 0.21276596188545227" stitchTiles="stitch" numOctaves="3" result="noise" seed="3084" />
<feColorMatrix in="noise" type="luminanceToAlpha" result="alphaNoise" />
<feComponentTransfer in="alphaNoise" result="coloredNoise1">
<feFuncA type="discrete" tableValues="1 1 1 1 1 1 1 1 1 1 1 1 1 1 1 1 1 1 1 1 1 1 1 1 1 1 1 1 1 1 1 1 1 1 1 1 1 1 1 1 1 1 1 1 1 1 1 1 1 1 1 0 0 0 0 0 0 0 0 0 0 0 0 0 0 0 0 0 0 0 0 0 0 0 0 0 0 0 0 0 0 0 0 0 0 0 0 0 0 0 0 0 0 0 0 0 0 0 0 0 "/>
</feComponentTransfer>
<feComposite operator="in" in2="shape" in="coloredNoise1" result="noise1Clipped" />
<feComponentTransfer in="alphaNoise" result="coloredNoise2">
<feFuncA type="discrete" tableValues="0 0 0 0 0 0 0 0 0 0 0 0 0 0 0 0 0 0 0 0 0 0 0 0 0 0 0 0 0 0 0 0 0 0 0 0 0 0 0 0 0 0 0 0 0 0 0 0 0 1 1 1 1 1 1 1 1 1 1 1 1 1 1 1 1 1 1 1 1 1 1 1 1 1 1 1 1 1 1 1 1 1 1 1 1 1 1 1 1 1 1 1 1 1 1 1 1 1 1 1 "/>
</feComponentTransfer>
<feComposite operator="in" in2="shape" in="coloredNoise2" result="noise2Clipped" />
<feFlood flood-color="rgba(48, 48, 48, 0.25)" result="color1Flood" />
<feComposite operator="in" in2="noise1Clipped" in="color1Flood" result="color1" />
<feFlood flood-color="#030303" result="color2Flood" />
<feComposite operator="in" in2="noise2Clipped" in="color2Flood" result="color2" />
<feMerge result="effect1_noise_236_20101">
<feMergeNode in="shape" />
<feMergeNode in="color1" />
<feMergeNode in="color2" />
</feMerge>
</filter>
<linearGradient id="paint0_linear_236_20101" x1="912" y1="179" x2="912" y2="209" gradientUnits="userSpaceOnUse">
<stop stop-color="#EDEDED"/>
<stop offset="1" stop-color="#737373"/>
</linearGradient>
<linearGradient id="paint1_linear_236_20101" x1="912" y1="229" x2="912" y2="259" gradientUnits="userSpaceOnUse">
<stop stop-color="#EDEDED"/>
<stop offset="1" stop-color="#737373"/>
</linearGradient>
<linearGradient id="paint2_linear_236_20101" x1="912" y1="279" x2="912" y2="309" gradientUnits="userSpaceOnUse">
<stop stop-color="#EDEDED"/>
<stop offset="1" stop-color="#737373"/>
</linearGradient>
<linearGradient id="paint3_linear_236_20101" x1="912" y1="329" x2="912" y2="359" gradientUnits="userSpaceOnUse">
<stop stop-color="#EDEDED"/>
<stop offset="1" stop-color="#737373"/>
</linearGradient>
<linearGradient id="paint4_linear_236_20101" x1="912" y1="379" x2="912" y2="409" gradientUnits="userSpaceOnUse">
<stop stop-color="#EDEDED"/>
<stop offset="1" stop-color="#737373"/>
</linearGradient>
<linearGradient id="paint5_linear_236_20101" x1="912" y1="429" x2="912" y2="459" gradientUnits="userSpaceOnUse">
<stop stop-color="#EDEDED"/>
<stop offset="1" stop-color="#737373"/>
</linearGradient>
<linearGradient id="paint6_linear_236_20101" x1="912" y1="479" x2="912" y2="509" gradientUnits="userSpaceOnUse">
<stop stop-color="#EDEDED"/>
<stop offset="1" stop-color="#737373"/>
</linearGradient>
<linearGradient id="paint7_linear_236_20101" x1="912" y1="529" x2="912" y2="559" gradientUnits="userSpaceOnUse">
<stop stop-color="#EDEDED"/>
<stop offset="1" stop-color="#737373"/>
</linearGradient>
<linearGradient id="paint8_linear_236_20101" x1="912" y1="579" x2="912" y2="609" gradientUnits="userSpaceOnUse">
<stop stop-color="#EDEDED"/>
<stop offset="1" stop-color="#737373"/>
</linearGradient>
<linearGradient id="paint9_linear_236_20101" x1="912" y1="629" x2="912" y2="659" gradientUnits="userSpaceOnUse">
<stop stop-color="#EDEDED"/>
<stop offset="1" stop-color="#737373"/>
</linearGradient>
<linearGradient id="paint10_linear_236_20101" x1="912" y1="679" x2="912" y2="709" gradientUnits="userSpaceOnUse">
<stop stop-color="#EDEDED"/>
<stop offset="1" stop-color="#737373"/>
</linearGradient>
<linearGradient id="paint11_linear_236_20101" x1="912" y1="729" x2="912" y2="759" gradientUnits="userSpaceOnUse">
<stop stop-color="#EDEDED"/>
<stop offset="1" stop-color="#737373"/>
</linearGradient>
<linearGradient id="paint12_linear_236_20101" x1="912" y1="779" x2="912" y2="809" gradientUnits="userSpaceOnUse">
<stop stop-color="#EDEDED"/>
<stop offset="1" stop-color="#737373"/>
</linearGradient>
<linearGradient id="paint13_linear_236_20101" x1="912" y1="829" x2="912" y2="859" gradientUnits="userSpaceOnUse">
<stop stop-color="#EDEDED"/>
<stop offset="1" stop-color="#737373"/>
</linearGradient>
<linearGradient id="paint14_linear_236_20101" x1="135" y1="179" x2="135" y2="209" gradientUnits="userSpaceOnUse">
<stop stop-color="#EDEDED"/>
<stop offset="1" stop-color="#737373"/>
</linearGradient>
<linearGradient id="paint15_linear_236_20101" x1="135" y1="229" x2="135" y2="259" gradientUnits="userSpaceOnUse">
<stop stop-color="#EDEDED"/>
<stop offset="1" stop-color="#737373"/>
</linearGradient>
<linearGradient id="paint16_linear_236_20101" x1="135" y1="279" x2="135" y2="309" gradientUnits="userSpaceOnUse">
<stop stop-color="#EDEDED"/>
<stop offset="1" stop-color="#737373"/>
</linearGradient>
<linearGradient id="paint17_linear_236_20101" x1="135" y1="329" x2="135" y2="359" gradientUnits="userSpaceOnUse">
<stop stop-color="#EDEDED"/>
<stop offset="1" stop-color="#737373"/>
</linearGradient>
<linearGradient id="paint18_linear_236_20101" x1="135" y1="379" x2="135" y2="409" gradientUnits="userSpaceOnUse">
<stop stop-color="#EDEDED"/>
<stop offset="1" stop-color="#737373"/>
</linearGradient>
<linearGradient id="paint19_linear_236_20101" x1="135" y1="429" x2="135" y2="459" gradientUnits="userSpaceOnUse">
<stop stop-color="#EDEDED"/>
<stop offset="1" stop-color="#737373"/>
</linearGradient>
<linearGradient id="paint20_linear_236_20101" x1="135" y1="479" x2="135" y2="509" gradientUnits="userSpaceOnUse">
<stop stop-color="#EDEDED"/>
<stop offset="1" stop-color="#737373"/>
</linearGradient>
<linearGradient id="paint21_linear_236_20101" x1="135" y1="529" x2="135" y2="559" gradientUnits="userSpaceOnUse">
<stop stop-color="#EDEDED"/>
<stop offset="1" stop-color="#737373"/>
</linearGradient>
<linearGradient id="paint22_linear_236_20101" x1="135" y1="579" x2="135" y2="609" gradientUnits="userSpaceOnUse">
<stop stop-color="#EDEDED"/>
<stop offset="1" stop-color="#737373"/>
</linearGradient>
<linearGradient id="paint23_linear_236_20101" x1="135" y1="629" x2="135" y2="659" gradientUnits="userSpaceOnUse">
<stop stop-color="#EDEDED"/>
<stop offset="1" stop-color="#737373"/>
</linearGradient>
<linearGradient id="paint24_linear_236_20101" x1="135" y1="679" x2="135" y2="709" gradientUnits="userSpaceOnUse">
<stop stop-color="#EDEDED"/>
<stop offset="1" stop-color="#737373"/>
</linearGradient>
<linearGradient id="paint25_linear_236_20101" x1="135" y1="729" x2="135" y2="759" gradientUnits="userSpaceOnUse">
<stop stop-color="#EDEDED"/>
<stop offset="1" stop-color="#737373"/>
</linearGradient>
<linearGradient id="paint26_linear_236_20101" x1="135" y1="779" x2="135" y2="809" gradientUnits="userSpaceOnUse">
<stop stop-color="#EDEDED"/>
<stop offset="1" stop-color="#737373"/>
</linearGradient>
<linearGradient id="paint27_linear_236_20101" x1="135" y1="829" x2="135" y2="859" gradientUnits="userSpaceOnUse">
<stop stop-color="#EDEDED"/>
<stop offset="1" stop-color="#737373"/>
</linearGradient>
<linearGradient id="paint28_linear_236_20101" x1="864" y1="135" x2="834" y2="135" gradientUnits="userSpaceOnUse">
<stop stop-color="#EDEDED"/>
<stop offset="1" stop-color="#737373"/>
</linearGradient>
<linearGradient id="paint29_linear_236_20101" x1="814" y1="135" x2="784" y2="135" gradientUnits="userSpaceOnUse">
<stop stop-color="#EDEDED"/>
<stop offset="1" stop-color="#737373"/>
</linearGradient>
<linearGradient id="paint30_linear_236_20101" x1="764" y1="135" x2="734" y2="135" gradientUnits="userSpaceOnUse">
<stop stop-color="#EDEDED"/>
<stop offset="1" stop-color="#737373"/>
</linearGradient>
<linearGradient id="paint31_linear_236_20101" x1="714" y1="135" x2="684" y2="135" gradientUnits="userSpaceOnUse">
<stop stop-color="#EDEDED"/>
<stop offset="1" stop-color="#737373"/>
</linearGradient>
<linearGradient id="paint32_linear_236_20101" x1="664" y1="135" x2="634" y2="135" gradientUnits="userSpaceOnUse">
<stop stop-color="#EDEDED"/>
<stop offset="1" stop-color="#737373"/>
</linearGradient>
<linearGradient id="paint33_linear_236_20101" x1="614" y1="135" x2="584" y2="135" gradientUnits="userSpaceOnUse">
<stop stop-color="#EDEDED"/>
<stop offset="1" stop-color="#737373"/>
</linearGradient>
<linearGradient id="paint34_linear_236_20101" x1="564" y1="135" x2="534" y2="135" gradientUnits="userSpaceOnUse">
<stop stop-color="#EDEDED"/>
<stop offset="1" stop-color="#737373"/>
</linearGradient>
<linearGradient id="paint35_linear_236_20101" x1="514" y1="135" x2="484" y2="135" gradientUnits="userSpaceOnUse">
<stop stop-color="#EDEDED"/>
<stop offset="1" stop-color="#737373"/>
</linearGradient>
<linearGradient id="paint36_linear_236_20101" x1="464" y1="135" x2="434" y2="135" gradientUnits="userSpaceOnUse">
<stop stop-color="#EDEDED"/>
<stop offset="1" stop-color="#737373"/>
</linearGradient>
<linearGradient id="paint37_linear_236_20101" x1="414" y1="135" x2="384" y2="135" gradientUnits="userSpaceOnUse">
<stop stop-color="#EDEDED"/>
<stop offset="1" stop-color="#737373"/>
</linearGradient>
<linearGradient id="paint38_linear_236_20101" x1="364" y1="135" x2="334" y2="135" gradientUnits="userSpaceOnUse">
<stop stop-color="#EDEDED"/>
<stop offset="1" stop-color="#737373"/>
</linearGradient>
<linearGradient id="paint39_linear_236_20101" x1="314" y1="135" x2="284" y2="135" gradientUnits="userSpaceOnUse">
<stop stop-color="#EDEDED"/>
<stop offset="1" stop-color="#737373"/>
</linearGradient>
<linearGradient id="paint40_linear_236_20101" x1="264" y1="135" x2="234" y2="135" gradientUnits="userSpaceOnUse">
<stop stop-color="#EDEDED"/>
<stop offset="1" stop-color="#737373"/>
</linearGradient>
<linearGradient id="paint41_linear_236_20101" x1="214" y1="135" x2="184" y2="135" gradientUnits="userSpaceOnUse">
<stop stop-color="#EDEDED"/>
<stop offset="1" stop-color="#737373"/>
</linearGradient>
<linearGradient id="paint42_linear_236_20101" x1="864" y1="912" x2="834" y2="912" gradientUnits="userSpaceOnUse">
<stop stop-color="#EDEDED"/>
<stop offset="1" stop-color="#737373"/>
</linearGradient>
<linearGradient id="paint43_linear_236_20101" x1="814" y1="912" x2="784" y2="912" gradientUnits="userSpaceOnUse">
<stop stop-color="#EDEDED"/>
<stop offset="1" stop-color="#737373"/>
</linearGradient>
<linearGradient id="paint44_linear_236_20101" x1="764" y1="912" x2="734" y2="912" gradientUnits="userSpaceOnUse">
<stop stop-color="#EDEDED"/>
<stop offset="1" stop-color="#737373"/>
</linearGradient>
<linearGradient id="paint45_linear_236_20101" x1="714" y1="912" x2="684" y2="912" gradientUnits="userSpaceOnUse">
<stop stop-color="#EDEDED"/>
<stop offset="1" stop-color="#737373"/>
</linearGradient>
<linearGradient id="paint46_linear_236_20101" x1="664" y1="912" x2="634" y2="912" gradientUnits="userSpaceOnUse">
<stop stop-color="#EDEDED"/>
<stop offset="1" stop-color="#737373"/>
</linearGradient>
<linearGradient id="paint47_linear_236_20101" x1="614" y1="912" x2="584" y2="912" gradientUnits="userSpaceOnUse">
<stop stop-color="#EDEDED"/>
<stop offset="1" stop-color="#737373"/>
</linearGradient>
<linearGradient id="paint48_linear_236_20101" x1="564" y1="912" x2="534" y2="912" gradientUnits="userSpaceOnUse">
<stop stop-color="#EDEDED"/>
<stop offset="1" stop-color="#737373"/>
</linearGradient>
<linearGradient id="paint49_linear_236_20101" x1="514" y1="912" x2="484" y2="912" gradientUnits="userSpaceOnUse">
<stop stop-color="#EDEDED"/>
<stop offset="1" stop-color="#737373"/>
</linearGradient>
<linearGradient id="paint50_linear_236_20101" x1="464" y1="912" x2="434" y2="912" gradientUnits="userSpaceOnUse">
<stop stop-color="#EDEDED"/>
<stop offset="1" stop-color="#737373"/>
</linearGradient>
<linearGradient id="paint51_linear_236_20101" x1="414" y1="912" x2="384" y2="912" gradientUnits="userSpaceOnUse">
<stop stop-color="#EDEDED"/>
<stop offset="1" stop-color="#737373"/>
</linearGradient>
<linearGradient id="paint52_linear_236_20101" x1="364" y1="912" x2="334" y2="912" gradientUnits="userSpaceOnUse">
<stop stop-color="#EDEDED"/>
<stop offset="1" stop-color="#737373"/>
</linearGradient>
<linearGradient id="paint53_linear_236_20101" x1="314" y1="912" x2="284" y2="912" gradientUnits="userSpaceOnUse">
<stop stop-color="#EDEDED"/>
<stop offset="1" stop-color="#737373"/>
</linearGradient>
<linearGradient id="paint54_linear_236_20101" x1="264" y1="912" x2="234" y2="912" gradientUnits="userSpaceOnUse">
<stop stop-color="#EDEDED"/>
<stop offset="1" stop-color="#737373"/>
</linearGradient>
<linearGradient id="paint55_linear_236_20101" x1="214" y1="912" x2="184" y2="912" gradientUnits="userSpaceOnUse">
<stop stop-color="#EDEDED"/>
<stop offset="1" stop-color="#737373"/>
</linearGradient>
<clipPath id="clip0_236_20101">
<rect x="12" y="12" width="1024" height="1024" rx="225" fill="white"/>
</clipPath>
</defs>
</svg>
